<svg xmlns="http://www.w3.org/2000/svg" width="33.65" height="33.65" viewBox="0 0 33.65 33.65">
  <g id="Facebook_4_" transform="translate(0 0)">
    <path id="Path_41" data-name="Path 41" d="M346.925,640.4a16.825,16.825,0,1,0,16.825,16.825A16.818,16.818,0,0,0,346.925,640.4Zm8.191,23.909c0,.487-.221,1.018-.753,1.018h-4.118v-6.2h2.125l.31-2.657h-2.435v-1.594c0-.708.177-1.063,1.2-1.063H352.9v-2.3c-.443-.044-1.151-.089-2.037-.089a3.055,3.055,0,0,0-3.276,3.232v1.815h-2.214v2.657h2.214v6.2h-7.66c-.487,0-.753-.531-.753-1.018V649.831a.784.784,0,0,1,.753-.886h14.479a.784.784,0,0,1,.753.886V664.31Z" transform="translate(-330.1 -640.4)" fill="#fff"/>
  </g>
</svg>
