<svg xmlns="http://www.w3.org/2000/svg" width="33.65" height="33.651" viewBox="0 0 33.65 33.651">
  <g id="Instagram_5_" transform="translate(0 0)">
    <path id="Path_25" data-name="Path 25" d="M1004.1,675.8a3.122,3.122,0,1,1,3.1,3.1A3.053,3.053,0,0,1,1004.1,675.8Z" transform="translate(-989.931 -659.018)" fill="#fff"/>
    <path id="Path_26" data-name="Path 26" d="M1021.257,667.77a.532.532,0,0,1-.487.531h-1.638a.539.539,0,0,1-.531-.531v-1.638a.538.538,0,0,1,.531-.531h1.638a.5.5,0,0,1,.487.531Z" transform="translate(-998.011 -655.062)" fill="#fff"/>
    <path id="Path_27" data-name="Path 27" d="M1007.581,676.7h1.859v7.394c0,.266-.044.576-.354.576H996.91c-.266,0-.31-.266-.31-.576V676.7h1.86c-.266,0-.354.974-.354,1.461a4.96,4.96,0,0,0,9.918,0C1007.979,677.718,1007.891,676.7,1007.581,676.7Z" transform="translate(-985.752 -661.247)" fill="#fff"/>
    <path id="Path_28" data-name="Path 28" d="M988.925,641.8a16.825,16.825,0,1,0,16.825,16.825A16.818,16.818,0,0,0,988.925,641.8Zm8.634,22.98a1.86,1.86,0,0,1-1.992,1.771h-12.4a1.86,1.86,0,0,1-1.992-1.771v-12.4a1.86,1.86,0,0,1,1.992-1.771h12.4a1.86,1.86,0,0,1,1.992,1.771Z" transform="translate(-972.1 -641.8)" fill="#fff"/>
  </g>
</svg>
