<svg height="36" viewBox="0 0 239.033 36" width="239.033" xmlns="http://www.w3.org/2000/svg"><g fill="#a152de"><path d="m15.2 113.02a18.473 18.473 0 0 1 1.44-7.431 17.317 17.317 0 0 1 3.909-5.683 17.041 17.041 0 0 1 5.76-3.626 19.4 19.4 0 0 1 6.994-1.26 21.847 21.847 0 0 1 5.22.566 24.766 24.766 0 0 1 3.934 1.286 18.484 18.484 0 0 1 3.291 1.8l-5.4 9.514a18.372 18.372 0 0 0 -1.8-1.183 17.4 17.4 0 0 0 -2.083-.8 9.043 9.043 0 0 0 -2.751-.386 7.45 7.45 0 0 0 -2.931.566 7.526 7.526 0 0 0 -2.34 1.543 7.071 7.071 0 0 0 -1.569 2.289 6.99 6.99 0 0 0 -.566 2.8 6.732 6.732 0 0 0 .591 2.8 7.194 7.194 0 0 0 1.62 2.289 7.658 7.658 0 0 0 2.417 1.543 7.955 7.955 0 0 0 3.034.566 9.6 9.6 0 0 0 2.931-.411 10.736 10.736 0 0 0 2.16-.926 7.927 7.927 0 0 0 1.8-1.337l5.4 9.514a15.278 15.278 0 0 1 -3.292 2.006 27.919 27.919 0 0 1 -3.96 1.337 20.623 20.623 0 0 1 -5.3.617 20.378 20.378 0 0 1 -7.406-1.311 17.456 17.456 0 0 1 -5.863-3.677 16.69 16.69 0 0 1 -3.857-5.683 18.8 18.8 0 0 1 -1.383-7.322zm6.48 0a12.545 12.545 0 0 1 .848-4.629 11.249 11.249 0 0 1 2.391-3.754 11.134 11.134 0 0 1 3.754-2.52 12.666 12.666 0 0 1 4.937-.926 14.339 14.339 0 0 1 2.391.18 10.834 10.834 0 0 1 1.774.437 6.8 6.8 0 0 1 1.491.617l.72-1.234q-.823-.359-1.749-.669a19.79 19.79 0 0 0 -2.006-.463 14.859 14.859 0 0 0 -2.623-.206 13.768 13.768 0 0 0 -5.014.926 12.824 12.824 0 0 0 -4.217 2.649 12.988 12.988 0 0 0 -4.037 9.591 13.5 13.5 0 0 0 1.054 5.451 12.283 12.283 0 0 0 2.906 4.14 12.927 12.927 0 0 0 4.32 2.649 14.817 14.817 0 0 0 5.246.926 13.63 13.63 0 0 0 2.777-.257 16.566 16.566 0 0 0 2.109-.566 10.32 10.32 0 0 0 1.749-.823l-.72-1.234a6.5 6.5 0 0 1 -1.543.771 11.55 11.55 0 0 1 -1.852.54 12.137 12.137 0 0 1 -2.52.231 13.337 13.337 0 0 1 -5.091-.926 11.286 11.286 0 0 1 -3.831-2.52 11.036 11.036 0 0 1 -2.417-3.754 12.544 12.544 0 0 1 -.843-4.627z" transform="translate(-15.204 -95.02)"/><path d="m303.879 113.02a17.52 17.52 0 0 1 1.414-6.994 17.991 17.991 0 0 1 9.591-9.591 18 18 0 0 1 13.989 0 17.99 17.99 0 0 1 9.591 9.591 18 18 0 0 1 0 13.989 17.99 17.99 0 0 1 -9.591 9.591 18 18 0 0 1 -13.989 0 17.991 17.991 0 0 1 -9.591-9.591 17.517 17.517 0 0 1 -1.414-6.995zm4.834 0a12.8 12.8 0 0 0 1.029 5.117 13.267 13.267 0 0 0 7.02 7.02 13.242 13.242 0 0 0 10.234 0 13.267 13.267 0 0 0 7.02-7.02 13.244 13.244 0 0 0 0-10.234 13.266 13.266 0 0 0 -7.02-7.02 13.242 13.242 0 0 0 -10.234 0 13.266 13.266 0 0 0 -7.02 7.02 12.805 12.805 0 0 0 -1.029 5.117zm13.166 11.829a11.44 11.44 0 0 1 -4.6-.926 12.039 12.039 0 0 1 -6.3-6.3 11.905 11.905 0 0 1 0-9.206 12.038 12.038 0 0 1 6.3-6.3 11.906 11.906 0 0 1 9.206 0 12.038 12.038 0 0 1 6.3 6.3 11.906 11.906 0 0 1 0 9.206 12.039 12.039 0 0 1 -6.3 6.3 11.442 11.442 0 0 1 -4.606.926zm-7.2-11.829a6.989 6.989 0 0 0 .566 2.8 7.224 7.224 0 0 0 3.832 3.831 7.226 7.226 0 0 0 5.606 0 7.224 7.224 0 0 0 3.831-3.831 7.226 7.226 0 0 0 0-5.606 7.223 7.223 0 0 0 -3.831-3.831 7.225 7.225 0 0 0 -5.606 0 7.223 7.223 0 0 0 -3.832 3.831 6.992 6.992 0 0 0 -.566 2.806z" transform="translate(-274.534 -95.02)"/><path d="m710.817 116.179a13.514 13.514 0 0 1 -1.234 6.043 10.789 10.789 0 0 1 -3.369 4.037 14.447 14.447 0 0 1 -4.989 2.263 25.047 25.047 0 0 1 -6.146.72v8.177h-10.953v-34.3h10.954a25.087 25.087 0 0 1 6.146.72 14.464 14.464 0 0 1 4.989 2.263 10.8 10.8 0 0 1 3.369 4.037 13.517 13.517 0 0 1 1.233 6.04zm-4.989 0a9.36 9.36 0 0 0 -.8-4.011 7.282 7.282 0 0 0 -2.237-2.777 10.044 10.044 0 0 0 -3.42-1.62 16.28 16.28 0 0 0 -4.294-.54h-5.811v26.069h1.337v-8.177h4.474a16.28 16.28 0 0 0 4.294-.54 10.044 10.044 0 0 0 3.42-1.62 7.283 7.283 0 0 0 2.237-2.777 9.36 9.36 0 0 0 .801-4.007zm-1.44 0a8 8 0 0 1 -.771 3.7 6.291 6.291 0 0 1 -2.057 2.366 8.667 8.667 0 0 1 -2.957 1.26 15.628 15.628 0 0 1 -3.523.386h-4.474v-15.427h4.474a15.634 15.634 0 0 1 3.523.386 8.685 8.685 0 0 1 2.957 1.26 6.3 6.3 0 0 1 2.057 2.366 8.005 8.005 0 0 1 .772 3.703zm-9.309 3.806h.463a4.137 4.137 0 0 0 3.111-1 4.6 4.6 0 0 0 0-5.606 4.137 4.137 0 0 0 -3.111-1h-.463z" transform="translate(-616.128 -102.293)"/><path d="m940.552 122.659-10.646-19.543h12.188l3.96 7.251 3.908-7.251h12.188l-10.646 19.543v14.76h-10.952zm6.171 10.646v-12.292l7.509-13.783h-1.594l-6.583 12.189-6.635-12.189h-1.543l7.457 13.783v12.287z" transform="translate(-836.924 -102.293)"/><path d="m1264.371 112.116h-6.326v-9h23.966v9h-6.326v25.3h-11.314zm6.329 21.184v-24.84h7.354v-1.23h-16.046v1.234h7.354v24.836z" transform="translate(-1131.706 -102.293)"/><path d="m1522.433 103.116h10.954v11.674h6.12v-11.674h11.006v34.3h-11.006v-12.7h-6.12v12.7h-10.954zm6.48 30.189v-13.012h15.12v13.007h1.337v-26.07h-1.337v11.829h-15.12v-11.829h-1.337v26.07z" transform="translate(-1369.219 -102.293)"/><path d="m2137.223 112.116h-6.323v-9h23.966v9h-6.326v25.3h-11.314zm6.325 21.189v-24.84h7.354v-1.235h-16.046v1.234h7.354v24.836z" transform="translate(-1915.83 -102.293)"/><path d="m1840.307 103.116h8.229l13.011 34.3h-10.8l-1.131-3.086h-10.389l-1.131 3.086h-10.8zm-5.349 30.189.977-2.572h16.971l.977 2.572h1.44l-9.923-26.075h-1.954l-9.926 26.074zm9.463-24.84 8.023 21.034h-16.044zm2.314 18.309-2.314-6.017-2.314 6.017z" transform="translate(-1643.09 -102.293)"/></g></svg>