<svg xmlns="http://www.w3.org/2000/svg" width="33.651" height="33.651" viewBox="0 0 33.651 33.651">
  <g id="Twitter_5_" transform="translate(0 0)">
    <path id="Path_29" data-name="Path 29" d="M861.925,641.8a16.825,16.825,0,1,0,16.825,16.825A16.818,16.818,0,0,0,861.925,641.8Zm6.42,13.239v.443a9.673,9.673,0,0,1-14.921,8.368,4.81,4.81,0,0,0,.8.044,6.683,6.683,0,0,0,4.206-1.505,3.416,3.416,0,0,1-3.188-2.435,3.668,3.668,0,0,0,1.55-.089,3.437,3.437,0,0,1-2.7-3.409v.044a3.328,3.328,0,0,0,1.505.443,3.487,3.487,0,0,1-1.55-2.922,4.031,4.031,0,0,1,.443-1.771,9.438,9.438,0,0,0,7,3.631,4.882,4.882,0,0,1-.089-.8,3.459,3.459,0,0,1,3.409-3.5,3.414,3.414,0,0,1,2.479,1.107,7.138,7.138,0,0,0,2.17-.841,3.67,3.67,0,0,1-1.505,1.948,7.035,7.035,0,0,0,1.948-.531A4.884,4.884,0,0,1,868.345,655.039Z" transform="translate(-845.1 -641.8)" fill="#fff"/>
  </g>
</svg>
